<svg width="20" height="21" viewBox="0 0 20 21" fill="none" xmlns="http://www.w3.org/2000/svg">
<path fill-rule="evenodd" clip-rule="evenodd" d="M15.8333 8.83337C15.8333 5.45072 13.968 3.10295 11.5545 2.39813C11.4671 2.17201 11.329 1.96179 11.1412 1.7854C10.4998 1.1827 9.50022 1.1827 8.85876 1.7854C8.67143 1.9614 8.53351 2.17108 8.44609 2.39664C6.02946 3.0984 4.16667 5.44104 4.16667 8.83337C4.16667 11.0283 3.72415 12.2582 2.90497 13.1495C2.768 13.2985 2.39692 13.6399 2.14555 13.8711C2.02663 13.9805 1.9345 14.0653 1.90664 14.0933L1.66667 14.3367V17.1784H6.73998C6.91153 18.0635 7.39174 18.6556 8.26017 19.1855C9.32845 19.8375 10.6715 19.8375 11.7398 19.1855C12.5062 18.7179 13.0201 17.9991 13.2286 17.1784H18.3333V14.3367L18.0934 14.0933C18.0681 14.0677 17.9797 13.9862 17.8642 13.8796L17.8641 13.8796C17.6135 13.6484 17.2352 13.2994 17.0962 13.1475C16.2764 12.252 15.8333 11.0206 15.8333 8.83337ZM11.4473 17.1784H8.48218C8.59992 17.3975 8.80059 17.5628 9.12835 17.7629C9.66356 18.0895 10.3364 18.0895 10.8717 17.7629C11.1195 17.6116 11.3132 17.4115 11.4473 17.1784ZM15.8668 14.2729C16.0422 14.4644 16.418 14.8146 16.6667 15.0433V15.5118H3.33333V15.0437C3.58006 14.8176 3.95703 14.4678 4.13207 14.2773C5.24518 13.0662 5.83333 11.4315 5.83333 8.83337C5.83333 5.68328 7.77731 3.84369 10 3.84369C12.2164 3.84369 14.1667 5.69278 14.1667 8.83337C14.1667 11.4232 14.755 13.0584 15.8668 14.2729Z" fill="white"/>
</svg>
