<svg width="16" height="16" viewBox="0 0 16 16" fill="none" xmlns="http://www.w3.org/2000/svg">
<path fill-rule="evenodd" clip-rule="evenodd" d="M1.87879 2H14.1212C14.7907 2 15.3333 2.59695 15.3333 3.33333V11.3333C15.3333 12.0697 14.7907 12.6667 14.1212 12.6667H1.87879C1.20936 12.6667 0.666672 12.0697 0.666672 11.3333V3.33333C0.666672 2.59695 1.20936 2 1.87879 2ZM2.00001 3.33333V11.3333H14V3.33333H2.00001ZM3.33334 8.66667V10H4.66667V8.66667H3.33334ZM5.33334 10V8.66667H7.33334V10H5.33334ZM11.3333 8.66667V10H12.6667V8.66667H11.3333ZM9.33334 10V8.66667H10.6667V10H9.33334ZM5.33334 5.33333H3.33334V7.33333H5.33334V5.33333Z" fill="#898F97"/>
</svg>
