<svg width="13" height="14" viewBox="0 0 13 14" fill="none" xmlns="http://www.w3.org/2000/svg">
<path fill-rule="evenodd" clip-rule="evenodd" d="M6.5 13.5C2.91015 13.5 0 10.5899 0 7C0 3.41015 2.91015 0.5 6.5 0.5C10.0899 0.5 13 3.41015 13 7C13 10.5899 10.0899 13.5 6.5 13.5ZM6.5 12.3182C9.43715 12.3182 11.8182 9.93715 11.8182 7C11.8182 4.06285 9.43715 1.68182 6.5 1.68182C3.56285 1.68182 1.18182 4.06285 1.18182 7C1.18182 9.93715 3.56285 12.3182 6.5 12.3182ZM9.45455 6.40909H7.09091V3.45455H5.90909V7.59091H9.45455V6.40909Z" fill="#898F97"/>
</svg>
