<svg width="16" height="16" viewBox="0 0 16 16" fill="none" xmlns="http://www.w3.org/2000/svg">
<path fill-rule="evenodd" clip-rule="evenodd" d="M13.6976 4.85215C12.1945 3.08475 10.2967 2 8.00003 2C5.70337 2 3.80554 3.08475 2.30245 4.85215C1.42479 5.88415 0.859233 6.91103 0.571842 7.62789L0.42276 7.99975L0.571669 8.37168C0.858718 9.08865 1.42387 10.1156 2.30134 11.1477C3.80403 12.9152 5.70221 14 8.00003 14C10.2979 14 12.196 12.9152 13.6987 11.1477C14.5762 10.1156 15.1413 9.08865 15.4284 8.37168L15.5773 7.99975L15.4282 7.62789C15.1408 6.91103 14.5753 5.88415 13.6976 4.85215ZM12.6388 5.9043C13.1037 6.46089 13.4995 7.06171 13.8241 7.66188C13.8912 7.78591 13.9499 7.89935 14 8.00025C13.9499 8.10111 13.8914 8.21449 13.8244 8.33846C13.5 8.93856 13.1045 9.53931 12.6398 10.0958C11.3572 11.6319 9.82047 12.526 8 12.526C6.17952 12.526 4.64282 11.6319 3.36018 10.0958C2.89546 9.53931 2.49997 8.93856 2.17561 8.33846C2.1086 8.21449 2.05007 8.10111 2 8.00025C2.05014 7.89935 2.10875 7.78591 2.17584 7.66188C2.5005 7.06171 2.89626 6.46089 3.36118 5.9043C4.64432 4.36818 6.18084 3.47402 8 3.47402C9.81915 3.47402 11.3557 4.36818 12.6388 5.9043ZM8 11C6.34314 11 5 9.65685 5 8C5 6.34315 6.34314 5 8 5C9.65685 5 11 6.34315 11 8C11 9.65685 9.65685 11 8 11ZM9.48083 8C9.48083 8.81784 8.81784 9.48084 8 9.48084C7.18215 9.48084 6.51916 8.81784 6.51916 8C6.51916 7.18216 7.18215 6.51916 8 6.51916C8.81784 6.51916 9.48083 7.18216 9.48083 8Z" fill="#898F97"/>
</svg>
