<svg width="16" height="16" viewBox="0 0 16 16" fill="none" xmlns="http://www.w3.org/2000/svg">
<path fill-rule="evenodd" clip-rule="evenodd" d="M16 8C16 3.58172 12.4183 0 8 0C3.58172 0 0 3.58172 0 8C0 12.4183 3.58172 16 8 16C12.4183 16 16 12.4183 16 8ZM14.5455 8C14.5455 5.24486 12.8432 2.8873 10.4331 1.92168C11.196 3.3944 11.6364 5.5799 11.6364 8C11.6364 10.4201 11.196 12.6056 10.4331 14.0783C12.8432 13.1127 14.5455 10.7551 14.5455 8ZM4.36364 8C4.36364 5.5799 4.80405 3.3944 5.56695 1.92168C3.1568 2.8873 1.45455 5.24486 1.45455 8C1.45455 10.7551 3.1568 13.1127 5.56695 14.0783C4.80405 12.6056 4.36364 10.4201 4.36364 8ZM5.81818 8C5.81818 4.35199 6.97717 1.45455 8 1.45455C9.02283 1.45455 10.1818 4.35199 10.1818 8C10.1818 11.648 9.02283 14.5455 8 14.5455C6.97717 14.5455 5.81818 11.648 5.81818 8Z" fill="#898F97"/>
<path fill-rule="evenodd" clip-rule="evenodd" d="M14.5913 7.01868L15.9542 7.52682C15.4147 8.97365 11.8645 10.1818 8 10.1818C3.83784 10.1818 0.526626 9.14202 0.030426 7.48091L1.42412 7.06459C1.50855 7.34724 2.13838 7.77204 3.206 8.1073C4.46146 8.50156 6.13935 8.7273 8 8.7273C11.3072 8.7273 14.3389 7.69556 14.5913 7.01868Z" fill="#898F97"/>
</svg>
