<svg width="16" height="16" viewBox="0 0 16 16" fill="none" xmlns="http://www.w3.org/2000/svg">
<path fill-rule="evenodd" clip-rule="evenodd" d="M11.0355 1.33338C10.0704 1.33337 9.44827 1.44835 8.73511 1.79742C8.47107 1.92666 8.22336 2.0823 7.99332 2.26388C7.77213 2.09248 7.53432 1.94399 7.28121 1.8188C6.55422 1.45922 5.90019 1.33337 4.9697 1.33337C2.47763 1.33337 0.666672 3.39822 0.666672 6.07996C0.666672 8.10521 1.79589 10.0616 3.89923 11.9533C5.00327 12.9463 6.41289 13.9289 7.42241 14.4517L8 14.7508L8.5776 14.4517C9.58712 13.9289 10.9967 12.9463 12.1008 11.9533C14.2041 10.0616 15.3333 8.10521 15.3333 6.07996C15.3333 3.4266 13.5053 1.34361 11.0355 1.33338ZM14 6.07996C14 7.66664 13.0575 9.29958 11.2092 10.9619C10.2015 11.8683 8.90598 12.774 8.00001 13.2492C7.09403 12.774 5.79855 11.8683 4.79086 10.9619C2.94255 9.29958 2.00001 7.66664 2.00001 6.07996C2.00001 4.09852 3.25577 2.66671 4.9697 2.66671C5.70953 2.66671 6.16542 2.75443 6.69009 3.01394C7.00001 3.16722 7.27392 3.36962 7.51103 3.62255L8.00156 4.14584L8.48764 3.61841C8.73007 3.35534 9.00801 3.14833 9.32129 2.99499C9.83059 2.7457 10.258 2.66671 11.0327 2.66671C12.7255 2.67373 14 4.12602 14 6.07996Z" fill="#898F97"/>
</svg>
