<svg width="16" height="16" viewBox="0 0 16 16" fill="none" xmlns="http://www.w3.org/2000/svg">
<g id="24 / security / key">
<path id="icon" fill-rule="evenodd" clip-rule="evenodd" d="M5.33337 6.00004C5.33337 3.42271 7.42271 1.33337 10 1.33337C12.5774 1.33337 14.6667 3.42271 14.6667 6.00004C14.6667 8.57737 12.5774 10.6667 10 10.6667H8.66671V12H7.33337V13.3334H6.00004V14.6667H1.33337V11.0572L5.43204 6.95856C5.36668 6.64569 5.33337 6.32491 5.33337 6.00004ZM7.33337 10.6667V9.33337H10C11.841 9.33337 13.3334 7.84099 13.3334 6.00004C13.3334 4.15909 11.841 2.66671 10 2.66671C8.15909 2.66671 6.66671 4.15909 6.66671 6.00004C6.66671 6.33246 6.71517 6.65763 6.80943 6.96862L6.9253 7.35092L2.66671 11.6095V13.3334H4.66671V12H6.00004V10.6667H7.33337ZM8.66671 6.00004C8.66671 6.73642 9.26366 7.33337 10 7.33337C10.7364 7.33337 11.3334 6.73642 11.3334 6.00004C11.3334 5.26366 10.7364 4.66671 10 4.66671C9.26366 4.66671 8.66671 5.26366 8.66671 6.00004Z" fill="#898F97"/>
</g>
</svg>
