<svg width="16" height="16" viewBox="0 0 16 16" fill="none" xmlns="http://www.w3.org/2000/svg">
<path fill-rule="evenodd" clip-rule="evenodd" d="M-1.65303e-06 7.99964C-1.53536e-06 6.65372 0.904279 5.59975 2.39989 5.59975L4.8582 5.59975L4.83595 5.53917C4.81371 5.47904 4.75106 5.31391 4.69021 5.15352L4.6902 5.15351C4.63634 5.01155 4.58389 4.8733 4.56213 4.81491C4.41003 4.40665 4.29904 4.0777 4.20923 3.75193C4.0735 3.25956 3.99982 2.81596 3.99982 2.39989C3.99982 1.22234 4.72629 0.490952 5.80112 0.17798C6.28589 0.0368201 6.70786 -7.41612e-05 7.19968 -6.59876e-07L7.58326 -6.26341e-07L7.82343 0.299094C8.09473 0.636952 8.62759 1.24585 9.24192 1.94784L9.24198 1.94792C10.3753 3.24299 11.7859 4.8549 12.3432 5.66646C12.4878 5.62352 12.6409 5.60046 12.7994 5.60046L14.3994 5.60046C15.283 5.60046 15.9993 6.31678 15.9993 7.20039L15.9993 14.4001C15.9993 15.2837 15.283 16 14.3994 16L12.7994 16C12.2497 16 11.7648 15.7228 11.4768 15.3006C11.2341 15.4575 10.9633 15.5885 10.669 15.6938C9.9952 15.9349 9.3269 16.009 8.77208 15.9988L3.19985 15.9993C0.99584 15.9993 -2.06869e-06 12.7543 -1.65303e-06 7.99964ZM10.13 14.1874C10.8379 13.9342 11.1995 13.5212 11.1995 12.7994L11.1995 7.20039L11.1995 7.19968C11.1995 7.00753 11.164 6.83738 11.0861 6.65569C10.9463 6.32932 9.67803 4.88231 8.4759 3.5108L8.47588 3.51078C7.85545 2.80293 7.25265 2.1152 6.83172 1.61203C6.63059 1.62712 6.44101 1.65803 6.24841 1.71411C5.79 1.84759 5.59975 2.03913 5.59975 2.39989C5.59975 2.65315 5.651 2.96172 5.75162 3.32674C5.82682 3.5995 5.92421 3.88812 6.06139 4.25634C6.08086 4.3086 6.12944 4.43665 6.1811 4.5728L6.18121 4.57309L6.18196 4.57506C6.24466 4.74033 6.31169 4.91698 6.33655 4.98421C6.44057 5.2655 6.5091 5.47261 6.55598 5.66079C6.75527 6.46079 6.55534 7.19968 5.59975 7.19968L2.39989 7.19968C1.84694 7.19968 1.59993 7.48758 1.59993 7.99964C1.59993 11.8321 2.38779 14.3994 3.19986 14.3994L8.7996 14.3994L8.82915 14.3998C9.17929 14.4061 9.67107 14.3516 10.13 14.1874ZM14.3994 14.4001L14.3994 7.20039L12.7994 7.20039L12.7994 14.4001L14.3994 14.4001Z" fill="#459221"/>
</svg>
