<svg width="16" height="16" viewBox="0 0 16 16" fill="none" xmlns="http://www.w3.org/2000/svg">
<path fill-rule="evenodd" clip-rule="evenodd" d="M6.22443 1.77778C6.22443 2.75962 7.02036 3.55556 8.0022 3.55556C8.98404 3.55556 9.77998 2.75962 9.77998 1.77778C9.77998 0.795938 8.98404 0 8.0022 0C7.02036 0 6.22443 0.795938 6.22443 1.77778ZM8.0022 9.77778C7.02036 9.77778 6.22443 8.98184 6.22443 8C6.22443 7.01816 7.02036 6.22222 8.0022 6.22222C8.98404 6.22222 9.77998 7.01816 9.77998 8C9.77998 8.98184 8.98404 9.77778 8.0022 9.77778ZM8.0022 16C7.02036 16 6.22443 15.2041 6.22443 14.2222C6.22443 13.2404 7.02036 12.4444 8.0022 12.4444C8.98404 12.4444 9.77998 13.2404 9.77998 14.2222C9.77998 15.2041 8.98404 16 8.0022 16Z" fill="white"/>
</svg>
