<svg width="16" height="22" viewBox="0 0 16 22" fill="none" xmlns="http://www.w3.org/2000/svg">
<path fill-rule="evenodd" clip-rule="evenodd" d="M7.99996 0C10.2091 0 12 1.79086 12 4V11C12 13.2091 10.2091 15 7.99996 15C5.79082 15 3.99996 13.2091 3.99996 11V4C3.99996 1.79086 5.79082 0 7.99996 0ZM9 18.9381V20H12V22H4V20H7V18.9381C3.05369 18.446 0 15.0796 0 11V9H2V11C2 14.3137 4.68629 17 8 17C11.3137 17 14 14.3137 14 11V9H16V11C16 15.0796 12.9463 18.446 9 18.9381ZM5.99999 4C5.99999 2.89543 6.89542 2 7.99999 2C9.10456 2 9.99999 2.89543 9.99999 4V11C9.99999 12.1046 9.10456 13 7.99999 13C6.89542 13 5.99999 12.1046 5.99999 11V4Z" fill="#898F97"/>
</svg>
