<svg width="16" height="19" viewBox="0 0 16 19" fill="none" xmlns="http://www.w3.org/2000/svg">
<path d="M1.5 17.4146V1.58544C1.5 1.56085 1.50485 1.55316 1.50685 1.54999C1.50693 1.54986 1.507 1.54974 1.50707 1.54962C1.51166 1.54224 1.5234 1.52837 1.54556 1.51621C1.56772 1.50406 1.58901 1.49988 1.60423 1.5C1.6146 1.50008 1.63109 1.50161 1.65913 1.51895L14.4591 9.4335C14.4836 9.44861 14.4896 9.45959 14.4919 9.46376C14.4959 9.47127 14.5 9.4837 14.5 9.5C14.5 9.5163 14.4959 9.52873 14.4919 9.53624C14.4896 9.54041 14.4836 9.55139 14.4591 9.5665L1.65913 17.4811C1.63109 17.4984 1.6146 17.4999 1.60423 17.5C1.58901 17.5001 1.56772 17.4959 1.54556 17.4838C1.5234 17.4716 1.51166 17.4578 1.50707 17.4504L1.50685 17.45C1.50485 17.4468 1.5 17.4391 1.5 17.4146Z" stroke="white" stroke-width="3"/>
</svg>
