<svg width="16" height="16" viewBox="0 0 16 16" fill="none" xmlns="http://www.w3.org/2000/svg">
<path fill-rule="evenodd" clip-rule="evenodd" d="M8 16C3.58172 16 0 12.4183 0 8C0 3.58172 3.58172 0 8 0C12.4183 0 16 3.58172 16 8C16 12.4183 12.4183 16 8 16ZM13.3815 11.727C14.1154 10.6693 14.5455 9.38489 14.5455 8C14.5455 4.38505 11.615 1.45455 8 1.45455C4.38505 1.45455 1.45455 4.38505 1.45455 8C1.45455 9.38489 1.88465 10.6693 2.61856 11.727C3.43706 10.6459 5.36045 10.1818 8.00001 10.1818C10.6396 10.1818 12.5629 10.6459 13.3815 11.727ZM12.338 12.9016C12.1251 12.1363 10.5959 11.6364 8.00001 11.6364C5.40409 11.6364 3.87492 12.1363 3.66206 12.9017C4.81695 13.9245 6.33596 14.5455 8 14.5455C9.66405 14.5455 11.1831 13.9245 12.338 12.9016ZM7.99999 3.63636C6.23934 3.63636 5.0909 4.91328 5.0909 6.54545C5.0909 9.03809 6.37153 10.1818 7.99999 10.1818C9.61314 10.1818 10.9091 9.07608 10.9091 6.69091C10.9091 5.03387 9.75577 3.63636 7.99999 3.63636ZM6.54545 6.54545C6.54545 8.19582 7.14051 8.72727 8 8.72727C8.85651 8.72727 9.45454 8.21701 9.45454 6.69091C9.45454 5.78212 8.88411 5.09091 8 5.09091C7.07908 5.09091 6.54545 5.68424 6.54545 6.54545Z" fill="#898F97"/>
</svg>
