<svg width="16" height="16" viewBox="0 0 16 16" fill="none" xmlns="http://www.w3.org/2000/svg">
<path fill-rule="evenodd" clip-rule="evenodd" d="M5.33334 3.99996H3.4094C4.69644 2.52754 6.10615 1.99996 8 1.99996C11.3137 1.99996 14 4.68625 14 7.99996C14 11.3137 11.3137 14 8 14C4.6863 14 2.00001 11.3137 2.00001 7.99996H0.666672C0.666672 12.05 3.94992 15.3333 8 15.3333C12.0501 15.3333 15.3333 12.05 15.3333 7.99996C15.3333 3.94987 12.0501 0.666626 8 0.666626C5.85776 0.666626 4.15806 1.27366 2.66667 2.83759V1.32743H1.33334V5.33329H5.33334V3.99996ZM11.3333 7.33329H8.66667V3.99996H7.33334V8.66663H11.3333V7.33329Z" fill="#898F97"/>
</svg>
