<svg width="20" height="20" viewBox="0 0 20 20" fill="none" xmlns="http://www.w3.org/2000/svg">
<path fill-rule="evenodd" clip-rule="evenodd" d="M8.29291 16.2155C3.87463 16.2155 0.292908 12.6337 0.292908 8.21545C0.292908 3.79718 3.87463 0.215454 8.29291 0.215454C12.7112 0.215454 16.2929 3.79718 16.2929 8.21545C16.2929 10.0642 15.6658 11.7664 14.6128 13.1211L20 18.5083L18.5858 19.9226L13.1986 14.5353C11.8439 15.5884 10.1416 16.2155 8.29291 16.2155ZM14.2929 8.21545C14.2929 11.5292 11.6066 14.2155 8.29291 14.2155C4.9792 14.2155 2.29291 11.5292 2.29291 8.21545C2.29291 4.90175 4.9792 2.21545 8.29291 2.21545C11.6066 2.21545 14.2929 4.90175 14.2929 8.21545Z" fill="white"/>
</svg>
