<svg width="16" height="16" viewBox="0 0 16 16" fill="none" xmlns="http://www.w3.org/2000/svg">
<path fill-rule="evenodd" clip-rule="evenodd" d="M8.66666 7.33333C7.4241 7.33333 6.38003 6.48349 6.08401 5.33333H1.33333V4H6.08401C6.38003 2.84985 7.4241 2 8.66666 2C10.1394 2 11.3333 3.19391 11.3333 4.66667C11.3333 6.13943 10.1394 7.33333 8.66666 7.33333ZM12.6667 4H14.6667V5.33333H12.6667V4ZM5.33333 14C4.09077 14 3.0467 13.1502 2.75067 12H1.33333V10.6667H2.75067C3.0467 9.51652 4.09077 8.66667 5.33333 8.66667C6.80609 8.66667 7.99999 9.86057 7.99999 11.3333C7.99999 12.8061 6.80609 14 5.33333 14ZM9.33333 12H14.6667V10.6667H9.33333V12ZM6.66666 11.3333C6.66666 12.0697 6.06971 12.6667 5.33333 12.6667C4.59695 12.6667 3.99999 12.0697 3.99999 11.3333C3.99999 10.597 4.59695 10 5.33333 10C6.06971 10 6.66666 10.597 6.66666 11.3333ZM9.99999 4.66667C9.99999 5.40305 9.40304 6 8.66666 6C7.93028 6 7.33333 5.40305 7.33333 4.66667C7.33333 3.93029 7.93028 3.33333 8.66666 3.33333C9.40304 3.33333 9.99999 3.93029 9.99999 4.66667Z" fill="#898F97"/>
</svg>
