<svg width="22" height="22" viewBox="0 0 22 22" fill="none" xmlns="http://www.w3.org/2000/svg">
<path fill-rule="evenodd" clip-rule="evenodd" d="M12.2722 0.30826L21.1285 5.22841C22.2905 5.87396 22.2905 7.32604 21.1285 7.97159L19.6374 8.8L21.1285 9.62841C22.2905 10.274 22.2905 11.726 21.1285 12.3716L19.6374 13.2L21.1285 14.0284C22.2905 14.674 22.2905 16.126 21.1285 16.7716L12.2722 21.6917C11.5324 22.1028 10.4676 22.1028 9.72777 21.6917L0.871492 16.7716C-0.290497 16.126 -0.290497 14.674 0.871492 14.0284L2.36264 13.2L0.871492 12.3716C-0.290497 11.726 -0.290497 10.274 0.871492 9.62841L2.36264 8.8L0.871492 7.97159C-0.290497 7.32604 -0.290497 5.87396 0.871492 5.22841L9.72777 0.30826C10.4676 -0.102753 11.5324 -0.102753 12.2722 0.30826ZM12.2722 12.8917L17.3723 10.0584L19.0673 11L17.3723 11.9416L15.1073 13.2L11.2038 15.3686C11.1284 15.4105 10.8716 15.4105 10.7962 15.3686L6.89271 13.2L4.62768 11.9416L2.93271 11L4.62768 10.0584L9.72777 12.8917C10.4676 13.3028 11.5324 13.3028 12.2722 12.8917ZM4.62768 14.4584L2.93271 15.4L10.7962 19.7686C10.8716 19.8105 11.1284 19.8105 11.2038 19.7686L19.0673 15.4L17.3723 14.4584L12.2722 17.2917C11.5324 17.7028 10.4676 17.7028 9.72777 17.2917L4.62768 14.4584ZM10.7962 2.23141C10.8716 2.18953 11.1284 2.18953 11.2038 2.23141L19.0673 6.6L11.2038 10.9686C11.1284 11.0105 10.8716 11.0105 10.7962 10.9686L2.93271 6.6L10.7962 2.23141Z" fill="#898F97"/>
</svg>
