<svg width="10" height="10" viewBox="0 0 10 10" fill="none" xmlns="http://www.w3.org/2000/svg">
<mask id="path-1-inside-1_108_1017" fill="white">
<path fill-rule="evenodd" clip-rule="evenodd" d="M5 8.2918L1.90983 10L2.5 6.38197L0 3.81966L3.45492 3.2918L5 0L6.54508 3.2918L10 3.81966L7.5 6.38197L8.09017 10L5 8.2918Z"/>
</mask>
<path d="M5 8.2918L5.48379 7.41661L5 7.14918L4.51621 7.41661L5 8.2918ZM1.90983 10L0.922874 9.83901L0.591343 11.8715L2.39362 10.8752L1.90983 10ZM2.5 6.38197L3.48696 6.54296L3.56821 6.04485L3.21576 5.68362L2.5 6.38197ZM0 3.81966L-0.151034 2.83113L-2.07483 3.12506L-0.715756 4.51801L0 3.81966ZM3.45492 3.2918L3.60595 4.28032L4.13343 4.19973L4.36016 3.71669L3.45492 3.2918ZM5 0L5.90524 -0.424897L5 -2.35351L4.09476 -0.424897L5 0ZM6.54508 3.2918L5.63984 3.71669L5.86657 4.19973L6.39405 4.28032L6.54508 3.2918ZM10 3.81966L10.7158 4.51801L12.0748 3.12506L10.151 2.83113L10 3.81966ZM7.5 6.38197L6.78425 5.68362L6.43179 6.04485L6.51304 6.54296L7.5 6.38197ZM8.09017 10L7.60638 10.8752L9.40866 11.8715L9.07713 9.83901L8.09017 10ZM4.51621 7.41661L1.42604 9.12482L2.39362 10.8752L5.48379 9.16698L4.51621 7.41661ZM2.89679 10.161L3.48696 6.54296L1.51304 6.22097L0.922874 9.83901L2.89679 10.161ZM3.21576 5.68362L0.715756 3.12131L-0.715756 4.51801L1.78424 7.08032L3.21576 5.68362ZM0.151034 4.80819L3.60595 4.28032L3.30388 2.30327L-0.151034 2.83113L0.151034 4.80819ZM4.36016 3.71669L5.90524 0.424897L4.09476 -0.424897L2.54967 2.8669L4.36016 3.71669ZM4.09476 0.424897L5.63984 3.71669L7.45033 2.8669L5.90524 -0.424897L4.09476 0.424897ZM6.39405 4.28032L9.84897 4.80819L10.151 2.83113L6.69612 2.30327L6.39405 4.28032ZM9.28424 3.12131L6.78425 5.68362L8.21576 7.08032L10.7158 4.51801L9.28424 3.12131ZM6.51304 6.54296L7.10321 10.161L9.07713 9.83901L8.48696 6.22097L6.51304 6.54296ZM8.57396 9.12482L5.48379 7.41661L4.51621 9.16698L7.60638 10.8752L8.57396 9.12482Z" fill="#DADADA" mask="url(#path-1-inside-1_108_1017)"/>
</svg>
